<svg viewBox="0 0 160 160" version="1.1" id="svg_null"><g id="root" stroke="none" stroke-width="1" fill="none" fill-rule="evenodd"><rect id="background.secondary" fill="#eebb55" x="0" y="0" width="160" height="160"></rect><path d="M95.005 21.19l11.037 -3.41l4.277 8.009l5.146 4.842l-3.034 5.768l1.358 2.166l-3.487 4.238l-0.16 0.128l-7.873 3.973l-6.583 -0.366l-11.955 -8.458l-1.65 -10.145l7.184 -8.433l5.74 1.688zm0.007 1.044l-5.406 -1.59l-6.463 7.587l1.508 9.275l11.377 8.05l6.03 0.334l7.539 -3.804l2.962 -3.6l-1.281 -2.043l2.948 -5.604l-4.653 -4.378l-0.098 -0.129l-3.926 -7.353l-10.537 3.255z" id="shape.primary" fill="#f1e6d1" fill-rule="nonzero" transform="translate(98.773410, 32.341973) scale(-1, 1) rotate(25.000000) translate(-98.773410, -32.341973)"></path><path d="M89.262 26.91l6.104 -5.704l0.694 0.72l-0.724 0.718l6.887 0.174l0.136 0.022l5.386 1.675l-0.686 11.424l-6.469 0.624l-0.141 -0.007l-6.745 -1.283l-0.198 -0.084l-4.488 -3.214l1.096 -1.772l-0.852 -3.293zm1.117 0.325l0.81 3.13l-0.829 1.34l3.64 2.607l6.566 1.249l5.546 -0.536l0.588 -9.788l-4.571 -1.421l-7.878 -0.2l-3.872 3.62z" id="shape.primary" fill="#f1e6d1" fill-rule="nonzero" transform="translate(98.381303, 28.884521) scale(-1, 1) rotate(25.000000) translate(-98.381303, -28.884521)"></path><path d="M107.076 58.2l0.078 -0.537l1.152 -7.926l2.769 -7.79l0.942 0.335l-0.167 0.471l-1.433 4.014l7.471 -4.356l2.523 -7.835l-1.486 -8.573l-9.896 -4.6l0.421 -0.906l10.37 4.82l1.619 9.33l-2.717 8.435l-2.145 1.25l-1.298 6.045l-8.35 8.85l0.016 -0.114l-0.02 0.08l-11.58 -2.99l-7.855 -9.965l-3.728 -1.525l-2.298 -5.538l3.506 -6.39l0.877 0.48l-3.275 5.97l1.954 4.71l8.503 3.477l6.957 -2.13l0.293 0.956l-7.298 2.235l-3.612 -1.477l6.553 8.313l11.154 2.88zm8.332 -13.185l-5.513 3.214l-0.623 1.747l-0.903 6.267l5.99 -6.35l1.049 -4.878zm-23.475 -9.657l-0.647 -3.16l0.98 -0.2l1.115 5.447l0.468 0.398l0.107 0.127l1.69 2.868l6.645 -0.541l5.291 -5.433l0.709 0.69l2.544 -2.108l-3.034 -6.09l0.895 -0.446l3.388 6.8l-4.043 3.349l-2.127 3.946l-10.811 0.88l-1.966 -3.335l-0.666 -0.567l-0.146 -0.71l-4.897 -5.373l3.638 -4.335l0.766 0.643l-3.075 3.665l3.176 3.485zm15.053 1.551l-3.18 3.265l1.486 -0.121l1.694 -3.144zm-6.155 -10.93l-2.316 9.684l-0.973 -0.233l2.652 -11.086l7.375 4.975l-6.28 6.778l-0.733 -0.68l5.486 -5.922l-5.211 -3.515z" id="shape.primary" fill="#f1e6d1" fill-rule="nonzero" transform="translate(101.451371, 39.861543) scale(-1, 1) rotate(25.000000) translate(-101.451371, -39.861543)"></path><path d="M36.892 96.9l11.036 -3.409l4.277 8.009l5.146 4.843l-3.034 5.768l1.358 2.165l-3.486 4.238l-0.161 0.128l-7.872 3.973l-6.584 -0.366l-11.955 -8.457l-1.65 -10.146l7.184 -8.433l5.74 1.688zm0.007 1.045l-5.407 -1.59l-6.463 7.588l1.508 9.274l11.378 8.05l6.029 0.335l7.54 -3.805l2.961 -3.6l-1.281 -2.043l2.948 -5.604l-4.652 -4.378l-0.099 -0.129l-3.926 -7.353l-10.536 3.255z" id="shape.primary" fill="#f1e6d1" fill-rule="nonzero" transform="translate(40.659680, 108.053153) scale(-1, -1) rotate(25.000000) translate(-40.659680, -108.053153)"></path><path d="M31.148 109.537l6.105 -5.705l0.693 0.72l-0.724 0.718l6.888 0.174l0.135 0.022l5.386 1.675l-0.686 11.424l-6.468 0.624l-0.142 -0.007l-6.745 -1.282l-0.197 -0.085l-4.489 -3.214l1.096 -1.772l-0.852 -3.292zm1.117 0.324l0.81 3.13l-0.829 1.34l3.64 2.607l6.566 1.249l5.546 -0.536l0.588 -9.788l-4.571 -1.421l-7.877 -0.2l-3.873 3.62z" id="shape.primary" fill="#f1e6d1" fill-rule="nonzero" transform="translate(40.267573, 111.510604) scale(-1, -1) rotate(25.000000) translate(-40.267573, -111.510604)"></path><path d="M48.963 118.872l0.077 -0.537l1.152 -7.926l2.77 -7.79l0.941 0.335l-0.167 0.471l-1.433 4.014l7.471 -4.356l2.524 -7.835l-1.487 -8.573l-9.896 -4.6l0.421 -0.906l10.37 4.82l1.62 9.33l-2.717 8.435l-2.146 1.25l-1.298 6.045l-8.35 8.85l0.016 -0.114l-0.02 0.08l-11.58 -2.99l-7.855 -9.965l-3.727 -1.525l-2.299 -5.538l3.506 -6.39l0.877 0.48l-3.275 5.97l1.955 4.71l8.503 3.477l6.956 -2.13l0.293 0.956l-7.298 2.235l-3.612 -1.477l6.553 8.313l11.155 2.88zm8.331 -13.185l-5.513 3.214l-0.623 1.747l-0.903 6.267l5.99 -6.35l1.05 -4.878zm-23.083 -7.743l-4.896 -5.372l3.637 -4.335l0.766 0.643l-3.075 3.665l3.176 3.485l-0.646 -3.16l0.98 -0.2l1.115 5.447l0.468 0.398l0.106 0.127l1.69 2.868l6.645 -0.541l3.96 -4.067l-1.66 -0.466l6.245 -2.318l-3.034 -6.09l0.895 -0.446l3.387 6.8l-4.042 3.349l-2.127 3.946l-10.812 0.88l-1.965 -3.335l-0.667 -0.567l-0.146 -0.71zm14.661 -0.363l-3.179 3.265l1.485 -0.121l1.694 -3.144zm-6.155 -10.93l-2.316 9.684l-0.972 -0.233l2.651 -11.086l7.375 4.975l-6.28 6.778l-0.733 -0.68l5.486 -5.922l-5.21 -3.515z" id="shape.primary" fill="#f1e6d1" fill-rule="nonzero" transform="translate(43.337640, 100.533583) scale(-1, -1) rotate(25.000000) translate(-43.337640, -100.533583)"></path><path d="M110.538 118.386l11.037 -3.41l4.276 8.008l5.147 4.843l-3.035 5.768l1.358 2.166l-3.486 4.237l-0.161 0.13l-7.872 3.972l-6.584 -0.367l-11.955 -8.457l-1.649 -10.145l7.183 -8.433l5.74 1.688zm0.007 1.044l-5.407 -1.59l-6.463 7.587l1.508 9.275l11.378 8.049l6.03 0.335l7.538 -3.804l2.962 -3.6l-1.28 -2.043l2.948 -5.604l-4.653 -4.379l-0.099 -0.128l-3.926 -7.353l-10.536 3.255z" id="shape.primary" fill="#f1e6d1" fill-rule="nonzero" transform="translate(114.305763, 129.537821) scale(1, -1) rotate(25.000000) translate(-114.305763, -129.537821)"></path><path d="M105.578 131.021l6.105 -5.704l0.693 0.72l-0.723 0.718l6.887 0.174l0.136 0.022l5.385 1.674l-0.685 11.424l-6.469 0.625l-0.141 -0.007l-6.745 -1.283l-0.198 -0.084l-4.489 -3.215l1.096 -1.772l-0.852 -3.292zm1.117 0.325l0.81 3.13l-0.828 1.34l3.639 2.606l6.566 1.25l5.547 -0.536l0.587 -9.788l-4.57 -1.421l-7.878 -0.2l-3.873 3.62z" id="shape.primary" fill="#f1e6d1" fill-rule="nonzero" transform="translate(114.697870, 132.995272) scale(1, -1) rotate(25.000000) translate(-114.697870, -132.995272)"></path><path d="M117.253 140.356l0.077 -0.536l1.152 -7.926l2.77 -7.79l0.942 0.335l-0.168 0.47l-1.433 4.015l7.471 -4.356l2.524 -7.835l-1.487 -8.573l-9.896 -4.6l0.421 -0.907l10.37 4.82l1.62 9.332l-2.717 8.434l-2.145 1.25l-1.3 6.045l-8.35 8.85l0.017 -0.114l-0.02 0.08l-11.579 -2.99l-7.855 -9.966l-3.728 -1.524l-2.299 -5.539l3.506 -6.39l0.877 0.481l-3.275 5.97l1.955 4.71l8.503 3.477l6.956 -2.13l0.293 0.956l-7.297 2.234l-3.613 -1.477l6.554 8.314l11.154 2.88zm8.331 -13.185l-5.512 3.215l-0.624 1.746l-0.903 6.268l5.99 -6.35l1.05 -4.879zm-23.474 -9.656l-0.647 -3.16l0.98 -0.2l1.115 5.446l0.468 0.399l0.107 0.127l1.69 2.867l6.644 -0.54l5.292 -5.433l0.708 0.69l2.545 -2.109l-3.034 -6.09l0.895 -0.446l3.388 6.8l-4.043 3.35l-2.127 3.946l-10.812 0.88l-1.965 -3.335l-0.667 -0.567l-0.145 -0.71l-4.897 -5.373l3.637 -4.335l0.766 0.643l-3.075 3.665l3.177 3.485zm15.053 1.551l-3.18 3.264l1.485 -0.12l1.695 -3.144zm-6.156 -10.93l-2.316 9.684l-0.972 -0.233l2.652 -11.086l7.374 4.974l-6.279 6.779l-0.734 -0.68l5.486 -5.922l-5.21 -3.515z" id="shape.primary" fill="#f1e6d1" fill-rule="nonzero" transform="translate(111.627802, 122.018251) scale(1, -1) rotate(25.000000) translate(-111.627802, -122.018251)"></path><path d="M113.87 96.927l16.03 3.94l-7.191 -10.76l-12.244 -1.582l3.404 8.402zm9.418 -7.753l8.874 13.28l-19.027 -4.678l-4.24 -10.462l14.393 1.86zm17.123 -16.458l4.111 -15.627l-12.535 11.707l-1.885 6.815l10.31 -2.895zm-9.312 -4.458l15.271 -14.263l-5.137 19.529l-12.567 3.529l2.433 -8.795zm-60.068 -15.016l5.7 -10.205l-6.399 -10.648l-2.926 23.492l3.625 -2.64zm0.088 -0.065l-0.142 0.16l0.054 -0.095l0.088 -0.065zm-1.421 -23.785l8.188 13.627l-6.036 10.806l-0.142 0.16l-5.58 4.063l3.57 -28.656zm-16.72 0.66l-16.03 -3.94l7.19 10.76l12.244 1.582l-3.404 -8.401zm-9.419 7.753l-8.874 -13.279l19.027 4.677l4.24 10.462l-14.393 -1.86zm-11.528 17.532l-15.059 5.86l16.84 3.259l6.62 -2.48l-8.401 -6.64zm1.867 10.154l-20.516 -3.971l18.82 -7.323l10.241 8.093l-8.545 3.201zm52.492 64.964l0 -12.422l-10.141 -5.812l-4.466 -0.395l14.607 18.63zm-9.944 -19.22l0.205 0.064l10.74 6.155l-0.001 15.897l-17.818 -22.725l6.874 0.609zm-14.817 28.87l-0.622 12.925l11.71 -11.634l-1.408 -8.954l-9.68 7.662zm12.156 1.64l-13.901 13.81l0.768 -15.953l11.378 -9.007l1.755 11.15z" id="shape.primary" fill="#f1e6d1" fill-rule="nonzero"></path><polygon id="shape.primary" fill="#f1e6d1" points="39 44 121 44 121 124 39 124"></polygon><polygon id="shape.secondary" fill="#eebb55" points="40 45 40 123 120 123 120 45"></polygon><g id="Group" transform="translate(48.000000, 66.000000)"><rect id="Rectangle-49" x="0" y="0" width="64" height="18"></rect><text id="headerText.primary" font-family="Fira Mono" font-size="13.190839310541536" font-weight="700" line-spacing="18" fill="#f1e6d1" data-text-alignment="C" font-style="normal" letter-spacing="NaN"><tspan x="0.035736083984375" y="14.5">Arteneck</tspan></text></g><g id="Group-2" transform="translate(46.000000, 88.000000)"><rect id="Rectangle-50" x="0" y="0" width="68" height="14"></rect><text id="captionText.primary" font-family="Fira Mono" font-size="12" font-weight="400" line-spacing="12" fill="#f1e6d1" data-text-alignment="c" font-style="normal"><tspan x="34" y="67"></tspan></text></g></g></svg>